# xmcd CD database file
#
# Track frame offsets:
#	150
#	15957
#	30692
#	37697
#	51957
#	55055
#	71650
#	77357
#	82825
#	98725
#	108265
#	124170
#	136500
#	151727
#	164635
#	178557
#	183875
#	197835
#	218895
#	233782
#	236842
#	255802
#	273995
#
# Disc length: 3857 seconds
#
# Revision: 33
# Processed by: cddbd v1.5.2PL0 Copyright (c) Steve Scherf et al.
# Submitted via: CDex 1.70beta3
#
DISCID=180f0f17
DTITLE=Nobuo Uematsu, Junya Nakano, Masashi Hamauzu - Final Fantasy X[CD2]
DYEAR=2001
DGENRE=Game Soundtrack
TTITLE0=ユウナのテーマ
TTITLE1=萌動
TTITLE2=異界送り
TTITLE3=嵐の前の静けさ
TTITLE4=祈りの歌～イフリート
TTITLE5=ルカ
TTITLE6=マイカ総老師歓迎
TTITLE7=不撓の決意
TTITLE8=The Splended Performance
TTITLE9=対峙
TTITLE10=Blitz Off
TTITLE11=アーロンのテーマ
TTITLE12=ミヘン街道
TTITLE13=ブラスdeチョコボ
TTITLE14=旅行公司
TTITLE15=通行を許可します
TTITLE16=シーモアのテーマ
TTITLE17=宵闇
TTITLE18=ジョゼ寺院
TTITLE19=祈りの歌～イクシオン
TTITLE20=シパーフ乗るぅ?
TTITLE21=リュックのテーマ
TTITLE22=グアドサラム
EXTD=YEAR: 2001
EXTT0=
EXTT1=
EXTT2=
EXTT3=
EXTT4=
EXTT5=
EXTT6=
EXTT7=
EXTT8=
EXTT9=
EXTT10=
EXTT11=
EXTT12=
EXTT13=
EXTT14=
EXTT15=
EXTT16=
EXTT17=
EXTT18=
EXTT19=
EXTT20=
EXTT21=
EXTT22=
PLAYORDER=
